<svg data-name="Group 17" xmlns="http://www.w3.org/2000/svg" width="282.445" height="323.779"><defs><linearGradient id="a" y1=".5" x2="1" y2=".5" gradientUnits="objectBoundingBox"><stop offset="0" stop-color="#d1001d"/><stop offset=".382" stop-color="#002e6c"/><stop offset=".454" stop-color="#004c8d"/><stop offset=".531" stop-color="#0065a8"/><stop offset=".614" stop-color="#0078bd"/><stop offset=".707" stop-color="#0086cc"/><stop offset=".816" stop-color="#008ed5"/><stop offset=".982" stop-color="#0091d8"/></linearGradient></defs><path data-name="Path 45" d="M308.761 300.766h168.076a22.23 22.23 0 110 44.459H376.346a9.061 9.061 0 100 18.123h100.491a40.352 40.352 0 100-80.7H308.761a9.061 9.061 0 100 18.122zM582.1 323c0-55.72-45.535-101.053-101.508-101.053H338a9.061 9.061 0 100 18.122h142.6c45.934 0 83.3 37.2 83.3 82.931a82.6 82.6 0 01-20.843 54.841 9.029 9.029 0 000 11.991 82.61 82.61 0 0120.843 54.837c0 45.729-37.37 82.931-83.3 82.931H372.042V414.86a9.081 9.081 0 00-9.1-9.061h-53.874a9.061 9.061 0 100 18.122h44.769V536.66a9.082 9.082 0 009.1 9.062H480.6c55.972 0 101.508-45.333 101.508-101.053a100.624 100.624 0 00-20.479-60.836A100.622 100.622 0 00582.1 323zM476.837 468.255h-19.613a9.061 9.061 0 100 18.122h19.614a40.352 40.352 0 100-80.7h-80.746a9.061 9.061 0 100 18.123h80.745a22.23 22.23 0 110 44.46z" transform="translate(-299.659 -221.943)" fill="url(#a)"/></svg>