<svg xmlns="http://www.w3.org/2000/svg" width="113.403" height="395.707"><defs><linearGradient id="b" y1=".5" x2="1" y2=".5" gradientUnits="objectBoundingBox"><stop offset="0" stop-color="#d1001d"/><stop offset=".382" stop-color="#002e6c"/><stop offset=".454" stop-color="#004c8d"/><stop offset=".531" stop-color="#0065a8"/><stop offset=".614" stop-color="#0078bd"/><stop offset=".707" stop-color="#0086cc"/><stop offset=".816" stop-color="#008ed5"/><stop offset=".982" stop-color="#0091d8"/></linearGradient><clipPath id="a"><path fill="none" d="M0 0h113.403v395.707H0z"/></clipPath></defs><g clip-path="url(#a)"><path d="M21.074 27.768h56.772a7.509 7.509 0 110 15.017H43.903a3.061 3.061 0 100 6.121h33.943a13.63 13.63 0 100-27.26H21.074a3.061 3.061 0 100 6.121zm92.328 7.509A34.249 34.249 0 0079.115 1.144H30.95a3.061 3.061 0 100 6.121h48.166a27.979 27.979 0 0121.1 46.536 3.05 3.05 0 000 4.05 27.978 27.978 0 01-21.1 46.536H42.449V66.306a3.067 3.067 0 00-3.074-3.061h-18.2a3.061 3.061 0 100 6.121h15.122v38.081a3.068 3.068 0 003.075 3.061h39.741a34.1 34.1 0 0027.369-54.682 33.988 33.988 0 006.921-20.549zM77.846 84.342h-6.625a3.061 3.061 0 100 6.121h6.625a13.63 13.63 0 100-27.26H50.573a3.061 3.061 0 100 6.121h27.274a7.509 7.509 0 110 15.017z" fill="#0d0d0d" opacity=".913"/><path d="M302.733 248.567h56.772a7.509 7.509 0 110 15.017h-33.943a3.061 3.061 0 100 6.121h33.943a13.63 13.63 0 100-27.26h-56.772a3.061 3.061 0 100 6.121zm92.328 7.509a34.249 34.249 0 00-34.287-34.133h-48.165a3.061 3.061 0 100 6.121h48.166a27.979 27.979 0 0121.1 46.536 3.05 3.05 0 000 4.05 27.978 27.978 0 01-21.1 46.536h-36.667v-38.081a3.067 3.067 0 00-3.074-3.061h-18.2a3.061 3.061 0 100 6.121h15.122v38.081a3.068 3.068 0 003.075 3.061h39.741a34.1 34.1 0 0027.369-54.682 33.988 33.988 0 006.921-20.549zm-35.556 49.065h-6.625a3.061 3.061 0 100 6.121h6.625a13.63 13.63 0 100-27.26h-27.273a3.061 3.061 0 100 6.121h27.274a7.509 7.509 0 110 15.017z" transform="translate(-281.659 -221.943)" fill="url(#b)"/><path d="M24 391.707V107.63" fill="none" stroke="#1ba5de" stroke-linecap="round" stroke-miterlimit="10" stroke-width="8"/><path fill="none" stroke="#d6d6d6" stroke-linecap="round" stroke-width="8" opacity=".134" d="M44 332.592v-73.061"/><path fill="none" stroke="#d6d6d6" stroke-linecap="round" stroke-width="8" opacity=".4" d="M4 295.733v-73.061"/></g></svg>