<svg xmlns="http://www.w3.org/2000/svg" width="129.928" height="176" viewBox="0 0 129.928 176">
  <g id="Group_6" data-name="Group 6" transform="translate(-1061.744 -294)">
    <line id="Line_57" data-name="Line 57" y1="54.152" transform="translate(1071 295)" fill="none" stroke="#fff" stroke-linecap="round" stroke-miterlimit="10" stroke-width="2"/>
    <line id="Line_58" data-name="Line 58" y1="56.949" transform="translate(1071 412.051)" fill="none" stroke="#fff" stroke-linecap="round" stroke-miterlimit="10" stroke-width="2"/>
    <line id="Line_59" data-name="Line 59" y1="21.636" transform="translate(1127 295)" fill="none" stroke="#fff" stroke-linecap="round" stroke-miterlimit="10" stroke-width="2" stroke-dasharray="4.412"/>
    <line id="Line_60" data-name="Line 60" y1="22.798" transform="translate(1127 446.202)" fill="none" stroke="#fff" stroke-linecap="round" stroke-miterlimit="10" stroke-width="2" stroke-dasharray="4.412"/>
    <line id="Line_61" data-name="Line 61" y1="53.428" transform="translate(1182 295)" fill="none" stroke="#fff" stroke-linecap="round" stroke-miterlimit="10" stroke-width="2"/>
    <line id="Line_62" data-name="Line 62" y1="56" transform="translate(1182 413)" fill="none" stroke="#fff" stroke-linecap="round" stroke-miterlimit="10" stroke-width="2"/>
    <g id="Elipse_5" data-name="Elipse 5">
      <circle id="Ellipse_16" data-name="Ellipse 16" cx="63.964" cy="63.964" r="63.964" transform="translate(1062.744 316.637)" fill="none" stroke="#fff" stroke-linecap="round" stroke-miterlimit="10" stroke-width="2"/>
    </g>
    <g id="Group_5" data-name="Group 5">
      <path id="Path_19" data-name="Path 19" d="M1130.1,382h-5.2a13.9,13.9,0,0,1-13.9-13.9v-5.2a13.9,13.9,0,0,1,13.9-13.9h5.2a13.9,13.9,0,0,1,13.9,13.9" fill="none" stroke="#1ba5de" stroke-linecap="round" stroke-miterlimit="10" stroke-width="2"/>
      <path id="Path_20" data-name="Path 20" d="M1124.9,382h5.2a13.9,13.9,0,0,1,13.9,13.9v5.2a13.9,13.9,0,0,1-13.9,13.9h-5.2a13.9,13.9,0,0,1-13.9-13.9v-5.2" fill="none" stroke="#1ba5de" stroke-linecap="round" stroke-miterlimit="10" stroke-width="2"/>
      <line id="Line_63" data-name="Line 63" y2="12" transform="translate(1127 337)" fill="none" stroke="#1ba5de" stroke-linecap="round" stroke-miterlimit="10" stroke-width="2"/>
      <line id="Line_64" data-name="Line 64" y2="12" transform="translate(1127 415)" fill="none" stroke="#1ba5de" stroke-linecap="round" stroke-miterlimit="10" stroke-width="2"/>
    </g>
  </g>
</svg>
