<svg xmlns="http://www.w3.org/2000/svg" width="167.326" height="170.729" viewBox="0 0 167.326 170.729">
  <g id="Group_1" data-name="Group 1" transform="translate(-692.837 -358.337)">
    <g id="Ellipse_5" data-name="Ellipse 5" transform="translate(736.415 404.562)" fill="none" stroke="#fff" stroke-linecap="round" stroke-miterlimit="10" stroke-width="2">
      <circle cx="40.085" cy="40.085" r="40.085" stroke="none"/>
      <circle cx="40.085" cy="40.085" r="39.085" fill="none"/>
    </g>
    <line id="Line_9" data-name="Line 9" y1="43.11" transform="translate(776.5 373.931)" fill="none" stroke="#fff" stroke-linecap="round" stroke-miterlimit="10" stroke-width="2"/>
    <path id="Path_2" data-name="Path 2" d="M778.251,378.469l18.718-18.718,18.718,18.718" transform="translate(-20.469)" fill="none" stroke="#fff" stroke-linecap="round" stroke-miterlimit="10" stroke-width="2" fill-rule="evenodd"/>
    <line id="Line_10" data-name="Line 10" x2="43.11" transform="translate(801.458 443.702)" fill="none" stroke="#fff" stroke-linecap="round" stroke-miterlimit="10" stroke-width="2"/>
    <path id="Path_3" data-name="Path 3" d="M887,446l18.718,18.718L887,483.437" transform="translate(-46.969 -21.017)" fill="none" stroke="#fff" stroke-linecap="round" stroke-miterlimit="10" stroke-width="2" fill-rule="evenodd"/>
    <line id="Line_11" data-name="Line 11" y2="43.11" transform="translate(776.5 470.362)" fill="none" stroke="#fff" stroke-linecap="round" stroke-miterlimit="10" stroke-width="2"/>
    <path id="Path_4" data-name="Path 4" d="M815.687,557l-18.718,18.718L778.251,557" transform="translate(-20.469 -48.066)" fill="none" stroke="#fff" stroke-linecap="round" stroke-miterlimit="10" stroke-width="2" fill-rule="evenodd"/>
    <line id="Line_12" data-name="Line 12" x1="43.11" transform="translate(708.431 443.702)" fill="none" stroke="#fff" stroke-linecap="round" stroke-miterlimit="10" stroke-width="2"/>
    <path id="Path_5" data-name="Path 5" d="M712.969,483.437l-18.718-18.718L712.969,446" transform="translate(0 -21.017)" fill="none" stroke="#fff" stroke-linecap="round" stroke-miterlimit="10" stroke-width="2" fill-rule="evenodd"/>
    <circle id="Ellipse_6" data-name="Ellipse 6" cx="9.076" cy="9.076" r="9.076" transform="translate(767.802 435.949)" fill="none" stroke="#1ba5de" stroke-linecap="round" stroke-miterlimit="10" stroke-width="2"/>
  </g>
</svg>
